<svg version="1" xmlns="http://www.w3.org/2000/svg" width="2666.667" height="2666.667" viewBox="0 0 2000.000000 2000.000000"><path d="M973.5 5.1C856.6 7.7 739.6 31.7 630.6 75.4c-137.6 55.2-257.4 137-358.5 244.7C145.8 454.6 57.1 627 22.1 806 10.2 867 4.4 922.5 3.3 986c-3.4 201.9 53.5 396.7 165.2 565.5 124.9 188.7 310.3 329.4 526 399.1 64.6 20.9 139.5 36.3 213.7 43.9 21.5 2.2 164.1 2.2 185.6 0 234.9-24.1 447-124.2 610.9-288.3 160.6-160.9 260-367 285.3-591.7 4.8-42.8 5.4-56.6 5.5-112 0-54-.5-65.2-4.6-105.5-20.8-204-104.6-396.3-240.4-551.5-26.7-30.6-65.6-69.4-96-95.8-159.4-138.6-355-222-565-241.1-37.8-3.4-71.5-4.4-116-3.5zM1033 118c89.3 3.6 173.6 19.2 254.5 47 42.4 14.6 106.2 42.5 105.2 45.9-.3.9-21.3 46.1-46.7 100.6-25.4 54.4-86.3 184.9-135.2 290-48.9 105-91 194.8-93.4 199.5-10.1 19.1-22.4 32.9-57.7 64.4-28.4 25.3-31.9 28.8-37.7 37.7-8 12.4-12.1 25.5-18.5 58.7-2.1 10.6-3.9 19.1-4.1 18.9-.3-.2-2-9.6-3.9-20.8-5.2-30-9.7-44.7-17.5-56.8-5.7-8.8-10-13.2-34.5-35-25.9-23-38.8-35.8-47.7-47.3-12.3-15.7.1 10-150.3-313.3-38.7-83.1-85.6-183.8-104.4-224-18.8-40.1-34-73.4-33.7-74 .5-1.3 35.6-17.6 56.8-26.5 113.5-47.1 243.5-70 368.8-65zM610.5 291.5c16.3 36.8 59.3 134 95.5 216C769.8 652 821.9 769.4 833.5 795c6.6 14.5 12.7 32.1 15 43.4 1.1 5.5 2 20.3 3 47 1.5 39.4 2.7 51.7 6.5 66.8 12.4 48.6 58.3 98.2 110.4 119.7 6.7 2.7 16.1 6.1 20.9 7.5l8.7 2.5 11.3-2.8c50.5-12.8 95.2-48.8 121.5-98.1 13.1-24.5 15.8-40.1 18.2-102.5 1-28.1 2.7-41.7 6.6-55.3 1.4-4.8 24.1-57.2 51.4-118.6 38.5-86.8 136.7-309.2 204.2-462.4 4.5-10 8.5-18.2 9-18.2 1 0 57.7 33.7 59.6 35.5 1 .9-12.7 32.6-70.4 162.1-39.4 88.5-112.3 252.5-162.1 364.4-49.8 111.9-93.4 209.2-96.9 216.1-8.9 17.6-19 32.3-29.6 43.4-10.8 11.3-19.5 18.4-46.3 37.5-49.2 35-54.2 41.7-68.1 91.2-3.2 11.5-6.1 20.8-6.4 20.8-.4 0-3.4-10.2-6.8-22.6-10.8-39.7-17-50.4-39.2-68.3-5.3-4.3-19-14.4-30.3-22.5-24.3-17.2-35.5-26.4-45.6-37.2-14.9-16-29.6-42-47.9-84.4-4.4-10.2-76.2-171.9-159.6-359.3-83.5-187.5-151.5-341.1-151.2-341.4 1.9-2 60.2-35.9 60.8-35.4.3.3 14 30.7 30.3 67.6zM533.8 371c50.9 125.4 223.7 549.2 230.5 565.5 3 7.1 9.5 22.7 14.4 34.5 19.6 46.8 26.3 71.2 29.8 109.5 3.5 38 13.1 71.6 29.6 104.2 24 47.3 60.2 84.9 102.7 106.6 11.9 6.1 33.8 15.1 42.2 17.3 7.2 1.9 22.2 1.8 31.8-.2 19.9-4.1 56.1-21.7 77.2-37.6 47.8-36 81.3-91.7 94.5-157.3 1.3-6.6 3.6-20.8 5-31.5 3.8-28.3 6.3-43 9.6-56 2.3-8.8 20.9-55.5 79.4-198.5 92.3-226.1 142.1-348.4 187.5-460.5 18.8-46.5 34.8-86 35.6-87.8l1.4-3.3 26.7 20.2c14.8 11.1 27.4 20.8 28.2 21.4 1.5 1.5-9 26.7-177.1 425.5-51.2 121.3-113 268.2-137.5 326.5-50.9 121.5-55.1 131.1-64.2 149.5-12.6 25.3-22.8 39.8-38.7 55-11.7 11.2-23.9 19.8-51.9 36.5-46.8 27.9-58.5 38.3-69.5 61.8-5.2 11-8.9 24.1-15 52-2.7 12.8-5 23.7-5 24.2s-.4.5-.9-.1c-.5-.5-3.2-11.5-6.1-24.4-14.4-65.2-22.6-76-86.5-114.3-28.9-17.2-36.9-23.2-52.1-38.2-15.6-15.4-25.2-29.2-36.8-52.8-4.1-8.4-22.9-51.9-41.6-96.7-38.2-90.9-55.5-132.2-151-358.5-154.8-367-187.3-444.7-186.3-445.6 4.1-4 54.9-41.7 55.5-41.1.3.4 17.7 42.8 38.6 94.2zm-47.4 151.7c143.8 365.6 244.7 621.6 255.9 649.4 22.6 56 25.8 72.1 21.8 112.6-2 20.6-1 64.1 1.8 82.8 7 46 21.8 83.2 45.1 114 20.4 26.9 32.7 35.6 81.9 58.1 36.5 16.7 46.8 23.5 55.7 36.5 10.2 15.1 14.5 32.4 17.5 70.9 1.6 20 1.6 92.1 0 120-2.2 39.3-8.5 116.8-9.7 117.9-1.9 2-61.9-4.4-97.9-10.5-106.6-17.7-211.8-55.6-303.1-109-64.7-37.9-127-86.1-180.9-139.9-133.2-133.3-220.2-304.9-249-491.2-8.2-53.1-10-77.7-10-133.8.1-48.1 1.1-66.1 6.1-105.5 26.1-207.4 126.3-402.7 277.9-542.1 7.7-7.1 14.2-12.9 14.5-12.9.3 0 32.9 82.2 72.4 182.7zm1118.7-165c149.4 142.9 243.3 324 270.8 522.3 6.6 48 8.6 80.7 7.8 133-.5 37.4-1.1 47.1-4.2 78.5-12 118.4-51.5 242.1-109.7 343.6-42.2 73.5-82.7 127.3-138.3 183.7-72.4 73.6-151.1 130.5-243.5 176.1-102.6 50.7-210.1 80.4-321.2 88.8-12.5.9-23 1.5-23.2 1.2-.6-.5-5.6-58-8.1-91.4-5.1-70.1-4.3-129.2 2.6-178.1 1-7.7 2.6-16.6 3.4-19.7 4.4-16.8 15.9-30.3 35.9-41.9 3.9-2.3 18.8-9.4 33.1-15.8 29.5-13.1 36.1-16.6 47.2-24.8 27.6-20.7 49.9-51.7 62.8-87.7 5.2-14.4 12-41.9 14.1-57 2-14 2.4-48.4 1.4-105.5l-.5-27.5 3.3-11.8c3.5-12.8 7.8-24.4 16.7-45.7 5-11.9 120.2-304.5 277.6-704.7C1561.9 400 1585.7 340 1586 340c.3 0 8.9 8 19.1 17.7z"/><path d="M942.6 219.7c-.3 1-6.8 24.1-14.5 51.3-7.7 27.2-22.1 77.6-32 112-9.9 34.4-29 101.2-42.6 148.5-13.5 47.3-24.8 86.8-25.1 87.8-.5 1.6 1.9 1.7 45.2 1.5l45.7-.3 12.6-44 12.7-44H1058.3l9.3 36c5.1 19.8 10.3 39.7 11.5 44.2l2.2 8.3h97.9l-.7-2.8c-.7-2.9-28-101.7-66.9-242.2-13.4-48.7-28.7-104-33.9-123l-9.5-34.5-62.5-.3c-58.9-.2-62.6-.1-63.1 1.5zm64.8 91.3c8 34.1 33.6 150.1 33.6 152.6 0 .2-18 .4-40 .4-26.5 0-40-.3-40-1 0-1.2 29.9-136 35.7-160.7 2-9 4-15.9 4.4-15.5.4.4 3.2 11.3 6.3 24.2z"/><path d="M990.3 617.4c-34.8 42.4-54.2 73.7-63.8 103-6.3 19.1-7.9 30.1-7.2 50.4.5 18.5 1.7 24.4 7.3 36.1 8.7 18.6 22.6 32.2 41.7 41.1 22 10.2 43.4 9.9 66.2-1 25.1-12 41.1-35.7 46.1-68.3 5.1-33.3-7.4-72.4-37.9-118.2-9.7-14.6-40.4-55.3-41.7-55.4-.3-.1-5.2 5.5-10.7 12.3zM245.2 856.2l.3 201.3 46.8.3 46.7.2V889h152v-71H339v-92h157v-71H245l.2 201.2zM347.4 1286.3c-25.3 13.3-59.1 30.9-75 39.1l-29.1 15 7.6 15.7 7.5 15.7 32.8-16.4c18-9 33.1-16.4 33.6-16.4.4 0 7.4 13.4 15.6 29.9l14.9 29.8 12.6-5.9c6.9-3.3 13-6.3 13.4-6.8.5-.4-5.9-14.3-14.2-30.9-8.3-16.5-15.1-30.4-15.1-30.9 0-.4 7.3-4.4 16.3-8.8l16.2-8.2 3.1 5.7c21.3 39.5 31 57.1 31.7 57.1 1.4 0 24.6-13.5 24.7-14.3 0-.5-6.5-12.9-14.3-27.5-7.9-14.7-19.1-35.6-24.8-46.5-5.7-10.8-10.6-19.7-10.9-19.7-.3 0-21.2 10.9-46.6 24.3zM418.4 1463.5l-66.1 55.3 11.5 13.1c6.3 7.2 11.7 13.1 12.1 13.1.3 0 16.6-13.4 36.1-29.7 19.5-16.3 48.3-40.2 64-53.1 15.7-12.9 29.1-24.1 29.9-24.8 1.2-1.1-.1-3.2-8.9-14.1-5.7-7-10.8-13.3-11.4-13.9-.8-.8-18.9 13.8-67.2 54.1zM574.5 1544.7c-42.2 23.7-89.2 50.3-111.3 63.1l-17.3 10 11.3 9.8c6.2 5.4 12.2 10.6 13.4 11.6 2.1 1.8 2.3 1.7 19.5-8.2 9.6-5.5 17.9-9.8 18.5-9.6.6.2 9.8 6.7 20.5 14.3 10.7 7.6 25.5 18.1 32.9 23.2 7.4 5.2 13.8 9.7 14.3 10.1.4.3-1.1 9.1-3.3 19.5-2.6 12.2-3.7 19.2-3.1 19.8 1.1 1.1 30.5 18.7 30.8 18.4 0-.1 4.7-24.7 10.2-54.7 5.5-30 13-70.2 16.6-89.5 3.6-19.2 6.5-35.4 6.5-36.1 0-.9-19.6-16-25.5-19.6-.6-.4-15.9 7.7-34 17.9zm23 23.5c-.2.7-3.4 16.8-7.1 35.8-3.7 19-6.8 34.6-7 34.8-.3.5-47.4-33.9-47.4-34.7.1-.7 60.1-37.1 61.2-37.1.4 0 .6.6.3 1.2zM711.4 1593.9c-.3.9-2.5 7.1-4.9 13.7l-4.4 12.2 25.7 11.7c14.1 6.4 26.1 12.1 26.5 12.5.5.4-6.3 21.4-15.1 46.6-22.1 63.3-29.2 84-29.2 85.1 0 1.2 32.2 10.5 33.1 9.6.6-.7 25.8-72.5 40.1-114.6 2.9-8.4 5.6-14.7 6.3-14.7 1.1 0 48.4 11.3 52.7 12.6 1.3.4 2.4-1.9 5.9-12.3 2.3-7 4.4-13.3 4.6-13.9.2-.5-2-1.6-4.9-2.3-24.9-6.4-75.3-23.6-111.5-38.1-20.3-8.1-24.3-9.4-24.9-8.1zM1611 638.2c-12.7 1.2-32.5 5.2-43.5 8.9-41.1 13.7-76 50.2-93.8 97.9-10.1 27-15.1 62.1-15.1 105.5 0 27.1 1.1 39.4 5.5 61.5 7.3 36.6 24.6 72.5 46.2 95.6 51.7 55.4 148.4 64 215.7 19.2 13.2-8.7 29.8-25.4 38.4-38.6 8.1-12.4 17.1-30.8 22.1-45.2 21.9-63.4 19.6-149.1-5.5-207.6-15.7-36.6-41.7-65.3-73.5-81.2-27.1-13.5-61.9-19.3-96.5-16zm35.7 71.8c12.6 4.4 26 15.4 33.1 27.3 16.9 28 25.2 74.9 22.3 124.8-3.2 54.8-14.3 89-35.2 108.3-10.1 9.4-21.3 13.6-36.4 13.6-24.1 0-43.8-12.1-54-33.3-9.3-19.6-16-44.8-18.6-70.1-.8-8-1-21.2-.6-39.5.8-37.4 3.4-56.7 10.2-77.7 9.9-30.4 26.3-48.5 49.5-54.9 7.6-2.1 21.5-1.4 29.7 1.5zM1635.2 1189.1c-7.4 3.7-12.3 9-16.8 18.4-5 10.4-6.7 18.4-6.7 30.5 0 24.5 9.5 40.6 28.6 48.1 7.2 2.9 9.3 3.3 17.7 3.3 15.3 0 23.7-4.4 50.3-26.2 13.4-11 19.7-15.7 25.3-18.5 4.1-2.1 9-.6 14.9 4.5 5.4 4.8 6.9 9 6.2 17.7-.6 8.2-3.2 15.9-11.3 33-5.7 12.2-6.2 13.6-4.6 14.6.9.6 6.9 3.9 13.2 7.3l11.6 6 5.9-12.6c14.4-30.8 17.5-40.5 17.5-54.7 0-15-4.1-25.8-13.4-35-7.3-7.2-13.8-10.9-24.2-13.5-9.3-2.4-17.2-2.5-26.4-.4-8.9 2-24.9 12.3-45.5 29.5-25.4 21.1-24.3 20.3-26 18.9-2.3-1.9-5.6-12-6.2-19-.7-9.3 2.4-21.4 9.8-37.4 3.3-7.2 6.2-13.6 6.5-14.2.7-1.6-6.5-3.4-13.8-3.4-5.2 0-7.7.6-12.6 3.1zM1563.3 1335.6c-4.6 7.4-8.3 13.8-8.3 14.3s32.7 19.9 72.8 43.2c40 23.2 73.6 42.8 74.8 43.6 2 1.3 2.5.7 10.8-12.8 4.8-7.8 8.5-14.3 8.3-14.6-.6-.5-143-83.2-149.7-86.8-.3-.2-4.2 5.7-8.7 13.1zM1503.5 1418.7c-5.4 6.4-9.8 12.2-9.9 12.9-.1 1.3 22.7 21.5 66.1 58.7 12.3 10.5 22.1 19.2 22 19.4-.4.3-62.7-17.8-100.1-29.1-13.7-4.2-25.5-7.6-26.3-7.6-.8 0-8.4 5.7-16.8 12.7l-15.4 12.8 24.8 25c13.7 13.7 41.2 41.9 61.1 62.5s36.6 37.5 37 37.5c.3 0 6.1-5.2 12.7-11.5l12.1-11.5-25.1-26c-38.4-39.7-57.2-59.8-56.1-60.2.8-.3 69.6 19.5 117.7 33.7 5.5 1.7 10.3 3 10.8 3 .9 0 24.9-27 24.9-28.1 0-.6-47.2-43.3-79-71.5-21.5-19.1-47.4-41.8-49.1-43.1-1.3-1.1-3 .4-11.4 10.4zM1334.5 1562c-6.6 3.8-12.4 7.1-12.8 7.2-.7.3 23.8 181.6 24.7 182.5.3.3 28.5-12.2 29.2-13 .1-.1-1.1-8.8-2.7-19.2-1.6-10.5-2.9-19.3-2.9-19.7 0-.6 64.4-39.8 65.4-39.8.2 0 7.5 5.4 16.1 12l15.8 11.9 8.6-6.1c4.7-3.3 11-7.6 13.9-9.5 2.8-2 5.2-3.9 5.2-4.3 0-.4-10-8.1-22.2-17-78.6-57.7-125.7-92-126-91.9-.2 0-5.7 3.1-12.3 6.9zm47.8 57.6c15 11.3 27.3 20.9 27.5 21.3.2.6-44.9 27.4-45.3 26.9-.1-.2-2.4-14.7-4.9-32.3-2.6-17.6-5-33-5.3-34.3-.3-1.2-.2-2.2.1-2.2.4 0 12.9 9.3 27.9 20.6zM1210.6 1622c-15.7 2.5-64.6 16.5-64.6 18.6 0 2.2 49.6 163.1 50.6 164.3.3.4 30.4-7.6 31.1-8.2.2-.3-3.7-13.7-8.6-29.8-5-16.1-8.9-29.4-8.8-29.5.1-.1 8.3-4.2 18.3-9.2 23.8-12 31.9-17.4 36.7-24.3 5.4-8 7.9-15.1 8.4-25 1.4-22.8-10.2-44.6-28.5-53.6-7.2-3.6-8.1-3.8-18.1-4-5.8-.1-13.2.2-16.5.7zm-5.7 31.5c20.8 1.1 29.3 4.1 33.8 12.3 5.2 9.2 3.9 13.7-6.5 23.4-4.9 4.5-30.1 21.4-30.7 20.6-.7-1.1-15.5-54.7-15.5-56.3 0-1.3.6-1.5 2.8-1.1 1.5.2 8.7.8 16.1 1.1z"/></svg>